# xmcd
#
# Track frame offsets: 
#        150
#        14638
#        40103
#        64567
#        83218
#        97884
#        112448
#        125533
#        141596
#        153631
#        180364
#        194856
#
# Disc length: 2897 seconds
#
# Revision: 0
# Processed by: cddbd v1.5.2PL0 Copyright (c) Steve Scherf et al.
# Submitted via: ExactAudioCopy v1.0b4
#
DISCID=af0b4f0c
DTITLE=Egidijus Sipavičius - Pėdsakas
DYEAR=2007
DGENRE=Pop
TTITLE0=Miškų dukra
TTITLE1=Pėdsakai
TTITLE2=Laiškas
TTITLE3=Miškų dukra
TTITLE4=Antilopė
TTITLE5=Židinys
TTITLE6=Senas šaldytuvas
TTITLE7=Daiva
TTITLE8=Diskoteka
TTITLE9=Nieko nėra geriau už darganotą orą
TTITLE10=Sunkumas (siena)
TTITLE11=Tai netiesa
EXTD=
EXTT0=
EXTT1=
EXTT2=
EXTT3=
EXTT4=
EXTT5=
EXTT6=
EXTT7=
EXTT8=
EXTT9=
EXTT10=
EXTT11=
PLAYORDER=
